<svg width="96" height="16" viewBox="0 0 96 16" fill="none" xmlns="http://www.w3.org/2000/svg">
<path d="M7.15861 1.30996C7.55219 0.697195 8.44781 0.697195 8.84139 1.30996L10.5168 3.91833C10.6522 4.12917 10.8618 4.28148 11.1042 4.34512L14.1026 5.13245C14.807 5.31742 15.0838 6.1692 14.6226 6.73287L12.6596 9.13227C12.5009 9.32622 12.4209 9.57266 12.4352 9.82282L12.613 12.9178C12.6548 13.6449 11.9302 14.1713 11.2516 13.9069L8.36304 12.7815C8.12956 12.6905 7.87044 12.6905 7.63696 12.7815L4.74839 13.9069C4.06981 14.1713 3.34523 13.6449 3.38699 12.9178L3.56476 9.82282C3.57912 9.57266 3.49905 9.32622 3.34038 9.13227L1.37739 6.73287C0.916239 6.1692 1.193 5.31742 1.8974 5.13245L4.89582 4.34512C5.13819 4.28148 5.34782 4.12917 5.48324 3.91833L7.15861 1.30996Z" fill="#FAD861"/>
<path d="M27.1586 1.30996C27.5522 0.697195 28.4478 0.697195 28.8414 1.30996L30.5168 3.91833C30.6522 4.12917 30.8618 4.28148 31.1042 4.34512L34.1026 5.13245C34.807 5.31742 35.0838 6.1692 34.6226 6.73287L32.6596 9.13227C32.5009 9.32622 32.4209 9.57266 32.4352 9.82282L32.613 12.9178C32.6548 13.6449 31.9302 14.1713 31.2516 13.9069L28.363 12.7815C28.1296 12.6905 27.8704 12.6905 27.637 12.7815L24.7484 13.9069C24.0698 14.1713 23.3452 13.6449 23.387 12.9178L23.5648 9.82282C23.5791 9.57266 23.4991 9.32622 23.3404 9.13227L21.3774 6.73287C20.9162 6.1692 21.193 5.31742 21.8974 5.13245L24.8958 4.34512C25.1382 4.28148 25.3478 4.12917 25.4832 3.91833L27.1586 1.30996Z" fill="#FAD861"/>
<path d="M47.1586 1.30996C47.5522 0.697195 48.4478 0.697195 48.8414 1.30996L50.5168 3.91833C50.6522 4.12917 50.8618 4.28148 51.1042 4.34512L54.1026 5.13245C54.807 5.31742 55.0838 6.1692 54.6226 6.73287L52.6596 9.13227C52.5009 9.32622 52.4209 9.57266 52.4352 9.82282L52.613 12.9178C52.6548 13.6449 51.9302 14.1713 51.2516 13.9069L48.363 12.7815C48.1296 12.6905 47.8704 12.6905 47.637 12.7815L44.7484 13.9069C44.0698 14.1713 43.3452 13.6449 43.387 12.9178L43.5648 9.82282C43.5791 9.57266 43.4991 9.32622 43.3404 9.13227L41.3774 6.73287C40.9162 6.1692 41.193 5.31742 41.8974 5.13245L44.8958 4.34512C45.1382 4.28148 45.3478 4.12917 45.4832 3.91833L47.1586 1.30996Z" fill="#FAD861"/>
<path d="M67.1586 1.30996C67.5522 0.697195 68.4478 0.697195 68.8414 1.30996L70.5168 3.91833C70.6522 4.12917 70.8618 4.28148 71.1042 4.34512L74.1026 5.13245C74.807 5.31742 75.0838 6.1692 74.6226 6.73287L72.6596 9.13227C72.5009 9.32622 72.4209 9.57266 72.4352 9.82282L72.613 12.9178C72.6548 13.6449 71.9302 14.1713 71.2516 13.9069L68.363 12.7815C68.1296 12.6905 67.8704 12.6905 67.637 12.7815L64.7484 13.9069C64.0698 14.1713 63.3452 13.6449 63.387 12.9178L63.5648 9.82282C63.5791 9.57266 63.4991 9.32622 63.3404 9.13227L61.3774 6.73287C60.9162 6.1692 61.193 5.31742 61.8974 5.13245L64.8958 4.34512C65.1382 4.28148 65.3478 4.12917 65.4832 3.91833L67.1586 1.30996Z" fill="#FAD861"/>
<path d="M87.1586 1.30996C87.5522 0.697195 88.4478 0.697195 88.8414 1.30996L90.5168 3.91833C90.6522 4.12917 90.8618 4.28148 91.1042 4.34512L94.1026 5.13245C94.807 5.31742 95.0838 6.1692 94.6226 6.73287L92.6596 9.13227C92.5009 9.32622 92.4209 9.57266 92.4352 9.82282L92.613 12.9178C92.6548 13.6449 91.9302 14.1713 91.2516 13.9069L88.363 12.7815C88.1296 12.6905 87.8704 12.6905 87.637 12.7815L84.7484 13.9069C84.0698 14.1713 83.3452 13.6449 83.387 12.9178L83.5648 9.82282C83.5791 9.57266 83.4991 9.32622 83.3404 9.13227L81.3774 6.73287C80.9162 6.1692 81.193 5.31742 81.8974 5.13245L84.8958 4.34512C85.1382 4.28148 85.3478 4.12917 85.4832 3.91833L87.1586 1.30996Z" fill="#FAD861"/>
</svg>
