<svg width="96" height="17" viewBox="0 0 96 17" fill="none" xmlns="http://www.w3.org/2000/svg">
<path d="M7.15861 1.82363C7.55219 1.21087 8.44781 1.21087 8.84139 1.82363L10.5168 4.432C10.6522 4.64284 10.8618 4.79515 11.1042 4.85879L14.1026 5.64613C14.807 5.83109 15.0838 6.68287 14.6226 7.24654L12.6596 9.64595C12.5009 9.83989 12.4209 10.0863 12.4352 10.3365L12.613 13.4315C12.6548 14.1585 11.9302 14.685 11.2516 14.4206L8.36304 13.2951C8.12956 13.2042 7.87044 13.2042 7.63696 13.2951L4.74839 14.4206C4.06981 14.685 3.34523 14.1585 3.38699 13.4315L3.56476 10.3365C3.57912 10.0863 3.49905 9.83989 3.34038 9.64595L1.37739 7.24655C0.916239 6.68287 1.193 5.83109 1.8974 5.64613L4.89582 4.85879C5.13819 4.79515 5.34782 4.64284 5.48324 4.432L7.15861 1.82363Z" fill="#F9A23B"/>
<path d="M27.1586 1.82363C27.5522 1.21087 28.4478 1.21087 28.8414 1.82363L30.5168 4.432C30.6522 4.64284 30.8618 4.79515 31.1042 4.85879L34.1026 5.64613C34.807 5.83109 35.0838 6.68287 34.6226 7.24654L32.6596 9.64595C32.5009 9.83989 32.4209 10.0863 32.4352 10.3365L32.613 13.4315C32.6548 14.1585 31.9302 14.685 31.2516 14.4206L28.363 13.2951C28.1296 13.2042 27.8704 13.2042 27.637 13.2951L24.7484 14.4206C24.0698 14.685 23.3452 14.1585 23.387 13.4315L23.5648 10.3365C23.5791 10.0863 23.4991 9.83989 23.3404 9.64595L21.3774 7.24655C20.9162 6.68287 21.193 5.83109 21.8974 5.64613L24.8958 4.85879C25.1382 4.79515 25.3478 4.64284 25.4832 4.432L27.1586 1.82363Z" fill="#F9A23B"/>
<path d="M47.1586 1.82363C47.5522 1.21087 48.4478 1.21087 48.8414 1.82363L50.5168 4.432C50.6522 4.64284 50.8618 4.79515 51.1042 4.85879L54.1026 5.64613C54.807 5.83109 55.0838 6.68287 54.6226 7.24654L52.6596 9.64595C52.5009 9.83989 52.4209 10.0863 52.4352 10.3365L52.613 13.4315C52.6548 14.1585 51.9302 14.685 51.2516 14.4206L48.363 13.2951C48.1296 13.2042 47.8704 13.2042 47.637 13.2951L44.7484 14.4206C44.0698 14.685 43.3452 14.1585 43.387 13.4315L43.5648 10.3365C43.5791 10.0863 43.4991 9.83989 43.3404 9.64595L41.3774 7.24655C40.9162 6.68287 41.193 5.83109 41.8974 5.64613L44.8958 4.85879C45.1382 4.79515 45.3478 4.64284 45.4832 4.432L47.1586 1.82363Z" fill="#F9A23B"/>
<path d="M67.1586 1.82363C67.5522 1.21087 68.4478 1.21087 68.8414 1.82363L70.5168 4.432C70.6522 4.64284 70.8618 4.79515 71.1042 4.85879L74.1026 5.64613C74.807 5.83109 75.0838 6.68287 74.6226 7.24654L72.6596 9.64595C72.5009 9.83989 72.4209 10.0863 72.4352 10.3365L72.613 13.4315C72.6548 14.1585 71.9302 14.685 71.2516 14.4206L68.363 13.2951C68.1296 13.2042 67.8704 13.2042 67.637 13.2951L64.7484 14.4206C64.0698 14.685 63.3452 14.1585 63.387 13.4315L63.5648 10.3365C63.5791 10.0863 63.4991 9.83989 63.3404 9.64595L61.3774 7.24655C60.9162 6.68287 61.193 5.83109 61.8974 5.64613L64.8958 4.85879C65.1382 4.79515 65.3478 4.64284 65.4832 4.432L67.1586 1.82363Z" fill="#F9A23B"/>
<path d="M87.1586 1.82363C87.5522 1.21087 88.4478 1.21087 88.8414 1.82363L90.5168 4.432C90.6522 4.64284 90.8618 4.79515 91.1042 4.85879L94.1026 5.64613C94.807 5.83109 95.0838 6.68287 94.6226 7.24654L92.6596 9.64595C92.5009 9.83989 92.4209 10.0863 92.4352 10.3365L92.613 13.4315C92.6548 14.1585 91.9302 14.685 91.2516 14.4206L88.363 13.2951C88.1296 13.2042 87.8704 13.2042 87.637 13.2951L84.7484 14.4206C84.0698 14.685 83.3452 14.1585 83.387 13.4315L83.5648 10.3365C83.5791 10.0863 83.4991 9.83989 83.3404 9.64595L81.3774 7.24655C80.9162 6.68287 81.193 5.83109 81.8974 5.64613L84.8958 4.85879C85.1382 4.79515 85.3478 4.64284 85.4832 4.432L87.1586 1.82363Z" fill="#F9A23B"/>
</svg>
