<svg width="94" height="45" viewBox="0 0 94 45" fill="none" xmlns="http://www.w3.org/2000/svg">
<path d="M0 12C0 5.37258 5.37258 0 12 0H94V33C94 39.6274 88.6274 45 82 45H0V12Z" fill="url(#paint0_linear_0_1)"/>
<path d="M21.0312 22.0547V26.5625C20.8542 26.776 20.5807 27.0078 20.2109 27.2578C19.8411 27.5026 19.3646 27.7135 18.7812 27.8906C18.1979 28.0677 17.4922 28.1562 16.6641 28.1562C15.9297 28.1562 15.2604 28.0365 14.6562 27.7969C14.0521 27.5521 13.5312 27.1953 13.0938 26.7266C12.6615 26.2578 12.3281 25.6849 12.0938 25.0078C11.8594 24.3255 11.7422 23.5469 11.7422 22.6719V21.9609C11.7422 21.0859 11.8542 20.3073 12.0781 19.625C12.3073 18.9427 12.6328 18.3672 13.0547 17.8984C13.4766 17.4297 13.9792 17.0729 14.5625 16.8281C15.1458 16.5833 15.7943 16.4609 16.5078 16.4609C17.4974 16.4609 18.3099 16.6224 18.9453 16.9453C19.5807 17.263 20.0651 17.7057 20.3984 18.2734C20.737 18.8359 20.9453 19.4818 21.0234 20.2109H18.75C18.6927 19.8255 18.5833 19.4896 18.4219 19.2031C18.2604 18.9167 18.0286 18.6927 17.7266 18.5312C17.4297 18.3698 17.0443 18.2891 16.5703 18.2891C16.1797 18.2891 15.8307 18.3698 15.5234 18.5312C15.2214 18.6875 14.9661 18.9193 14.7578 19.2266C14.5495 19.5339 14.3906 19.9141 14.2812 20.3672C14.1719 20.8203 14.1172 21.3464 14.1172 21.9453V22.6719C14.1172 23.2656 14.1745 23.7917 14.2891 24.25C14.4036 24.7031 14.5729 25.0859 14.7969 25.3984C15.026 25.7057 15.3073 25.9375 15.6406 26.0938C15.974 26.25 16.362 26.3281 16.8047 26.3281C17.1745 26.3281 17.4818 26.2969 17.7266 26.2344C17.9766 26.1719 18.1771 26.0964 18.3281 26.0078C18.4844 25.9141 18.6042 25.8255 18.6875 25.7422V23.7266H16.5469V22.0547H21.0312ZM25.1562 19.5469V28H22.8984V19.5469H25.1562ZM22.7578 17.3438C22.7578 17.0156 22.8724 16.7448 23.1016 16.5312C23.3307 16.3177 23.638 16.2109 24.0234 16.2109C24.4036 16.2109 24.7083 16.3177 24.9375 16.5312C25.1719 16.7448 25.2891 17.0156 25.2891 17.3438C25.2891 17.6719 25.1719 17.9427 24.9375 18.1562C24.7083 18.3698 24.4036 18.4766 24.0234 18.4766C23.638 18.4766 23.3307 18.3698 23.1016 18.1562C22.8724 17.9427 22.7578 17.6719 22.7578 17.3438ZM31.5781 26.0938V22.3281C31.5781 22.0573 31.5339 21.8255 31.4453 21.6328C31.3568 21.4349 31.2188 21.2812 31.0312 21.1719C30.849 21.0625 30.612 21.0078 30.3203 21.0078C30.0703 21.0078 29.8542 21.0521 29.6719 21.1406C29.4896 21.224 29.349 21.3464 29.25 21.5078C29.151 21.6641 29.1016 21.849 29.1016 22.0625H26.8516C26.8516 21.7031 26.9349 21.362 27.1016 21.0391C27.2682 20.7161 27.5104 20.4323 27.8281 20.1875C28.1458 19.9375 28.5234 19.7422 28.9609 19.6016C29.4036 19.4609 29.8984 19.3906 30.4453 19.3906C31.1016 19.3906 31.6849 19.5 32.1953 19.7188C32.7057 19.9375 33.1068 20.2656 33.3984 20.7031C33.6953 21.1406 33.8438 21.6875 33.8438 22.3438V25.9609C33.8438 26.4245 33.8724 26.8047 33.9297 27.1016C33.987 27.3932 34.0703 27.6484 34.1797 27.8672V28H31.9062C31.7969 27.7708 31.7135 27.4844 31.6562 27.1406C31.6042 26.7917 31.5781 26.4427 31.5781 26.0938ZM31.875 22.8516L31.8906 24.125H30.6328C30.3359 24.125 30.0781 24.1589 29.8594 24.2266C29.6406 24.2943 29.4609 24.3906 29.3203 24.5156C29.1797 24.6354 29.0755 24.776 29.0078 24.9375C28.9453 25.099 28.9141 25.276 28.9141 25.4688C28.9141 25.6615 28.9583 25.8359 29.0469 25.9922C29.1354 26.1432 29.263 26.263 29.4297 26.3516C29.5964 26.4349 29.7917 26.4766 30.0156 26.4766C30.3542 26.4766 30.6484 26.4089 30.8984 26.2734C31.1484 26.138 31.3411 25.9714 31.4766 25.7734C31.6172 25.5755 31.6901 25.388 31.6953 25.2109L32.2891 26.1641C32.2057 26.3776 32.0911 26.599 31.9453 26.8281C31.8047 27.0573 31.625 27.2734 31.4062 27.4766C31.1875 27.6745 30.9245 27.8385 30.6172 27.9688C30.3099 28.0938 29.9453 28.1562 29.5234 28.1562C28.987 28.1562 28.5 28.0495 28.0625 27.8359C27.6302 27.6172 27.2865 27.3177 27.0312 26.9375C26.7812 26.5521 26.6562 26.1146 26.6562 25.625C26.6562 25.1823 26.7396 24.7891 26.9062 24.4453C27.0729 24.1016 27.3177 23.8125 27.6406 23.5781C27.9688 23.3385 28.3776 23.1589 28.8672 23.0391C29.3568 22.9141 29.9245 22.8516 30.5703 22.8516H31.875ZM31.2812 18.125H29.5859L29.4609 17.0781C29.7214 17.0625 29.9297 17.0365 30.0859 17C30.2474 16.9583 30.3646 16.901 30.4375 16.8281C30.5156 16.7552 30.5547 16.6641 30.5547 16.5547C30.5547 16.4453 30.526 16.3568 30.4688 16.2891C30.4167 16.2161 30.3385 16.1615 30.2344 16.125C30.1302 16.0833 30.0104 16.0547 29.875 16.0391C29.7396 16.0182 29.5911 16.0078 29.4297 16.0078L29.4844 14.9766C29.9688 14.9766 30.3958 15.0104 30.7656 15.0781C31.1406 15.1458 31.4531 15.2474 31.7031 15.3828C31.9531 15.513 32.1406 15.6719 32.2656 15.8594C32.3958 16.0469 32.4609 16.2578 32.4609 16.4922C32.4609 16.8516 32.3385 17.1198 32.0938 17.2969C31.849 17.4688 31.5781 17.5755 31.2812 17.6172V18.125ZM37.8281 21.2969V28H35.5703V19.5469H37.6875L37.8281 21.2969ZM37.5156 23.4766H36.8906C36.8906 22.888 36.9609 22.3464 37.1016 21.8516C37.2474 21.3516 37.4583 20.9193 37.7344 20.5547C38.0156 20.1849 38.362 19.8984 38.7734 19.6953C39.1849 19.4922 39.6615 19.3906 40.2031 19.3906C40.5781 19.3906 40.9219 19.4479 41.2344 19.5625C41.5469 19.6719 41.8151 19.8464 42.0391 20.0859C42.2682 20.3203 42.4453 20.6276 42.5703 21.0078C42.6953 21.3828 42.7578 21.8333 42.7578 22.3594V28H40.5078V22.6094C40.5078 22.224 40.4557 21.9271 40.3516 21.7188C40.2474 21.5104 40.099 21.3646 39.9062 21.2812C39.7188 21.1979 39.4922 21.1562 39.2266 21.1562C38.9349 21.1562 38.6797 21.2161 38.4609 21.3359C38.2474 21.4557 38.0703 21.6224 37.9297 21.8359C37.7891 22.0443 37.6849 22.2891 37.6172 22.5703C37.5495 22.8516 37.5156 23.1536 37.5156 23.4766ZM42.5469 23.2188L41.7422 23.3203C41.7422 22.7682 41.8099 22.2552 41.9453 21.7812C42.0859 21.3073 42.2917 20.8906 42.5625 20.5312C42.8385 20.1719 43.1797 19.8932 43.5859 19.6953C43.9922 19.4922 44.4609 19.3906 44.9922 19.3906C45.3984 19.3906 45.7682 19.4505 46.1016 19.5703C46.4349 19.6849 46.7188 19.8698 46.9531 20.125C47.1927 20.375 47.375 20.7031 47.5 21.1094C47.6302 21.5156 47.6953 22.013 47.6953 22.6016V28H45.4375V22.6016C45.4375 22.2109 45.3854 21.9141 45.2812 21.7109C45.1823 21.5026 45.0365 21.3594 44.8438 21.2812C44.6562 21.1979 44.4323 21.1562 44.1719 21.1562C43.901 21.1562 43.6641 21.2109 43.4609 21.3203C43.2578 21.4245 43.0885 21.5703 42.9531 21.7578C42.8177 21.9453 42.7161 22.1641 42.6484 22.4141C42.5807 22.6589 42.5469 22.9271 42.5469 23.2188ZM55.6328 21.3359H56.8359C57.2214 21.3359 57.5391 21.2708 57.7891 21.1406C58.0391 21.0052 58.224 20.8177 58.3438 20.5781C58.4688 20.3333 58.5312 20.0495 58.5312 19.7266C58.5312 19.4349 58.474 19.1771 58.3594 18.9531C58.25 18.724 58.0807 18.5469 57.8516 18.4219C57.6224 18.2917 57.3333 18.2266 56.9844 18.2266C56.7083 18.2266 56.4531 18.2812 56.2188 18.3906C55.9844 18.5 55.7969 18.6536 55.6562 18.8516C55.5156 19.0495 55.4453 19.2891 55.4453 19.5703H53.1875C53.1875 18.9453 53.3542 18.401 53.6875 17.9375C54.026 17.474 54.4792 17.112 55.0469 16.8516C55.6146 16.5911 56.2396 16.4609 56.9219 16.4609C57.6927 16.4609 58.3672 16.5859 58.9453 16.8359C59.5234 17.0807 59.974 17.4427 60.2969 17.9219C60.6198 18.401 60.7812 18.9948 60.7812 19.7031C60.7812 20.0625 60.6979 20.4115 60.5312 20.75C60.3646 21.0833 60.125 21.3854 59.8125 21.6562C59.5052 21.9219 59.1302 22.1354 58.6875 22.2969C58.2448 22.4531 57.7474 22.5312 57.1953 22.5312H55.6328V21.3359ZM55.6328 23.0469V21.8828H57.1953C57.8151 21.8828 58.3594 21.9531 58.8281 22.0938C59.2969 22.2344 59.6901 22.4375 60.0078 22.7031C60.3255 22.9635 60.5651 23.2734 60.7266 23.6328C60.888 23.987 60.9688 24.3802 60.9688 24.8125C60.9688 25.3438 60.8672 25.8177 60.6641 26.2344C60.4609 26.6458 60.1745 26.9948 59.8047 27.2812C59.4401 27.5677 59.013 27.7865 58.5234 27.9375C58.0339 28.0833 57.5 28.1562 56.9219 28.1562C56.4427 28.1562 55.9714 28.0911 55.5078 27.9609C55.0495 27.8255 54.6328 27.625 54.2578 27.3594C53.888 27.0885 53.5911 26.75 53.3672 26.3438C53.1484 25.9323 53.0391 25.4453 53.0391 24.8828H55.2969C55.2969 25.1745 55.3698 25.4349 55.5156 25.6641C55.6615 25.8932 55.862 26.0729 56.1172 26.2031C56.3776 26.3333 56.6667 26.3984 56.9844 26.3984C57.3438 26.3984 57.651 26.3333 57.9062 26.2031C58.1667 26.0677 58.3646 25.8802 58.5 25.6406C58.6406 25.3958 58.7109 25.112 58.7109 24.7891C58.7109 24.3724 58.6354 24.0391 58.4844 23.7891C58.3333 23.5339 58.1172 23.3464 57.8359 23.2266C57.5547 23.1068 57.2214 23.0469 56.8359 23.0469H55.6328ZM70.1719 21.3125V23.2812C70.1719 24.1354 70.0807 24.8724 69.8984 25.4922C69.7161 26.1068 69.4531 26.612 69.1094 27.0078C68.7708 27.3984 68.3672 27.6875 67.8984 27.875C67.4297 28.0625 66.9089 28.1562 66.3359 28.1562C65.8776 28.1562 65.4505 28.099 65.0547 27.9844C64.6589 27.8646 64.3021 27.6797 63.9844 27.4297C63.6719 27.1797 63.401 26.8646 63.1719 26.4844C62.9479 26.099 62.776 25.6406 62.6562 25.1094C62.5365 24.5781 62.4766 23.9688 62.4766 23.2812V21.3125C62.4766 20.4583 62.5677 19.7266 62.75 19.1172C62.9375 18.5026 63.2005 18 63.5391 17.6094C63.8828 17.2188 64.2891 16.9323 64.7578 16.75C65.2266 16.5625 65.7474 16.4688 66.3203 16.4688C66.7786 16.4688 67.2031 16.5286 67.5938 16.6484C67.9896 16.763 68.3464 16.9427 68.6641 17.1875C68.9818 17.4323 69.2526 17.7474 69.4766 18.1328C69.7005 18.513 69.8724 18.9688 69.9922 19.5C70.112 20.026 70.1719 20.6302 70.1719 21.3125ZM67.9141 23.5781V21.0078C67.9141 20.5964 67.8906 20.237 67.8438 19.9297C67.8021 19.6224 67.737 19.362 67.6484 19.1484C67.5599 18.9297 67.4505 18.7526 67.3203 18.6172C67.1901 18.4818 67.0417 18.3828 66.875 18.3203C66.7083 18.2578 66.5234 18.2266 66.3203 18.2266C66.0651 18.2266 65.8385 18.276 65.6406 18.375C65.4479 18.474 65.2839 18.6328 65.1484 18.8516C65.013 19.0651 64.9089 19.3516 64.8359 19.7109C64.7682 20.0651 64.7344 20.4974 64.7344 21.0078V23.5781C64.7344 23.9896 64.7552 24.3516 64.7969 24.6641C64.8438 24.9766 64.9115 25.2448 65 25.4688C65.0938 25.6875 65.2031 25.8672 65.3281 26.0078C65.4583 26.1432 65.6068 26.2422 65.7734 26.3047C65.9453 26.3672 66.1328 26.3984 66.3359 26.3984C66.5859 26.3984 66.8073 26.349 67 26.25C67.1979 26.1458 67.3646 25.9844 67.5 25.7656C67.6406 25.5417 67.7448 25.25 67.8125 24.8906C67.8802 24.5312 67.9141 24.0938 67.9141 23.5781ZM71.6719 19.4141V18.8125C71.6719 18.3802 71.7656 17.987 71.9531 17.6328C72.1406 17.2786 72.4167 16.9948 72.7812 16.7812C73.1458 16.5677 73.5938 16.4609 74.125 16.4609C74.6719 16.4609 75.1276 16.5677 75.4922 16.7812C75.862 16.9948 76.138 17.2786 76.3203 17.6328C76.5078 17.987 76.6016 18.3802 76.6016 18.8125V19.4141C76.6016 19.8359 76.5078 20.224 76.3203 20.5781C76.138 20.9323 75.8646 21.2161 75.5 21.4297C75.1354 21.6432 74.6849 21.75 74.1484 21.75C73.6068 21.75 73.151 21.6432 72.7812 21.4297C72.4167 21.2161 72.1406 20.9323 71.9531 20.5781C71.7656 20.224 71.6719 19.8359 71.6719 19.4141ZM73.1641 18.8125V19.4141C73.1641 19.5964 73.1979 19.7708 73.2656 19.9375C73.3385 20.099 73.4479 20.2318 73.5938 20.3359C73.7448 20.4349 73.9271 20.4844 74.1406 20.4844C74.3646 20.4844 74.5469 20.4349 74.6875 20.3359C74.8281 20.2318 74.9323 20.099 75 19.9375C75.0677 19.7708 75.1016 19.5964 75.1016 19.4141V18.8125C75.1016 18.6198 75.0651 18.4427 74.9922 18.2812C74.9245 18.1146 74.8177 17.9818 74.6719 17.8828C74.5312 17.7786 74.349 17.7266 74.125 17.7266C73.9167 17.7266 73.7396 17.7786 73.5938 17.8828C73.4479 17.9818 73.3385 18.1146 73.2656 18.2812C73.1979 18.4427 73.1641 18.6198 73.1641 18.8125ZM77.1094 25.8125V25.2109C77.1094 24.7839 77.2031 24.3932 77.3906 24.0391C77.5833 23.6849 77.862 23.401 78.2266 23.1875C78.5964 22.974 79.0495 22.8672 79.5859 22.8672C80.1276 22.8672 80.5807 22.974 80.9453 23.1875C81.3099 23.401 81.5859 23.6849 81.7734 24.0391C81.9609 24.3932 82.0547 24.7839 82.0547 25.2109V25.8125C82.0547 26.2396 81.9609 26.6302 81.7734 26.9844C81.5911 27.3385 81.3177 27.6224 80.9531 27.8359C80.5885 28.0495 80.138 28.1562 79.6016 28.1562C79.0599 28.1562 78.6042 28.0495 78.2344 27.8359C77.8646 27.6224 77.5833 27.3385 77.3906 26.9844C77.2031 26.6302 77.1094 26.2396 77.1094 25.8125ZM78.6094 25.2109V25.8125C78.6094 26 78.651 26.1771 78.7344 26.3438C78.8177 26.5104 78.9323 26.6432 79.0781 26.7422C79.2292 26.8411 79.4036 26.8906 79.6016 26.8906C79.8516 26.8906 80.0469 26.8411 80.1875 26.7422C80.3281 26.6432 80.4245 26.5104 80.4766 26.3438C80.5339 26.1771 80.5625 26 80.5625 25.8125V25.2109C80.5625 25.0234 80.526 24.849 80.4531 24.6875C80.3802 24.5208 80.2708 24.388 80.125 24.2891C79.9844 24.1849 79.8047 24.1328 79.5859 24.1328C79.3672 24.1328 79.1849 24.1849 79.0391 24.2891C78.8984 24.388 78.7917 24.5208 78.7188 24.6875C78.6458 24.849 78.6094 25.0234 78.6094 25.2109ZM80.1406 18.25L74.5859 27.1406L73.4922 26.5625L79.0469 17.6719L80.1406 18.25Z" fill="white"/>
<defs>
<linearGradient id="paint0_linear_0_1" x1="47" y1="0" x2="47" y2="45" gradientUnits="userSpaceOnUse">
<stop stop-color="#FB3B3B"/>
<stop offset="1" stop-color="#FF7272"/>
</linearGradient>
</defs>
</svg>
