<svg width="222" height="21" viewBox="0 0 222 21" fill="none" xmlns="http://www.w3.org/2000/svg">
<path d="M7.15861 4.30996C7.55219 3.6972 8.44781 3.6972 8.84139 4.30996L10.5168 6.91833C10.6522 7.12917 10.8618 7.28148 11.1042 7.34512L14.1026 8.13245C14.807 8.31742 15.0838 9.1692 14.6226 9.73287L12.6596 12.1323C12.5009 12.3262 12.4209 12.5727 12.4352 12.8228L12.613 15.9178C12.6548 16.6449 11.9302 17.1713 11.2516 16.9069L8.36304 15.7815C8.12956 15.6905 7.87044 15.6905 7.63696 15.7815L4.74839 16.9069C4.06981 17.1713 3.34523 16.6449 3.38699 15.9178L3.56476 12.8228C3.57912 12.5727 3.49905 12.3262 3.34038 12.1323L1.37739 9.73287C0.916239 9.1692 1.193 8.31742 1.8974 8.13245L4.89582 7.34512C5.13819 7.28148 5.34782 7.12917 5.48324 6.91833L7.15861 4.30996Z" fill="#FAD861"/>
<path d="M27.1586 4.30996C27.5522 3.6972 28.4478 3.6972 28.8414 4.30996L30.5168 6.91833C30.6522 7.12917 30.8618 7.28148 31.1042 7.34512L34.1026 8.13245C34.807 8.31742 35.0838 9.1692 34.6226 9.73287L32.6596 12.1323C32.5009 12.3262 32.4209 12.5727 32.4352 12.8228L32.613 15.9178C32.6548 16.6449 31.9302 17.1713 31.2516 16.9069L28.363 15.7815C28.1296 15.6905 27.8704 15.6905 27.637 15.7815L24.7484 16.9069C24.0698 17.1713 23.3452 16.6449 23.387 15.9178L23.5648 12.8228C23.5791 12.5727 23.4991 12.3262 23.3404 12.1323L21.3774 9.73287C20.9162 9.1692 21.193 8.31742 21.8974 8.13245L24.8958 7.34512C25.1382 7.28148 25.3478 7.12917 25.4832 6.91833L27.1586 4.30996Z" fill="#FAD861"/>
<path d="M47.1586 4.30996C47.5522 3.6972 48.4478 3.6972 48.8414 4.30996L50.5168 6.91833C50.6522 7.12917 50.8618 7.28148 51.1042 7.34512L54.1026 8.13245C54.807 8.31742 55.0838 9.1692 54.6226 9.73287L52.6596 12.1323C52.5009 12.3262 52.4209 12.5727 52.4352 12.8228L52.613 15.9178C52.6548 16.6449 51.9302 17.1713 51.2516 16.9069L48.363 15.7815C48.1296 15.6905 47.8704 15.6905 47.637 15.7815L44.7484 16.9069C44.0698 17.1713 43.3452 16.6449 43.387 15.9178L43.5648 12.8228C43.5791 12.5727 43.4991 12.3262 43.3404 12.1323L41.3774 9.73287C40.9162 9.1692 41.193 8.31742 41.8974 8.13245L44.8958 7.34512C45.1382 7.28148 45.3478 7.12917 45.4832 6.91833L47.1586 4.30996Z" fill="#FAD861"/>
<path d="M67.1586 4.30996C67.5522 3.6972 68.4478 3.6972 68.8414 4.30996L70.5168 6.91833C70.6522 7.12917 70.8618 7.28148 71.1042 7.34512L74.1026 8.13245C74.807 8.31742 75.0838 9.1692 74.6226 9.73287L72.6596 12.1323C72.5009 12.3262 72.4209 12.5727 72.4352 12.8228L72.613 15.9178C72.6548 16.6449 71.9302 17.1713 71.2516 16.9069L68.363 15.7815C68.1296 15.6905 67.8704 15.6905 67.637 15.7815L64.7484 16.9069C64.0698 17.1713 63.3452 16.6449 63.387 15.9178L63.5648 12.8228C63.5791 12.5727 63.4991 12.3262 63.3404 12.1323L61.3774 9.73287C60.9162 9.1692 61.193 8.31742 61.8974 8.13245L64.8958 7.34512C65.1382 7.28148 65.3478 7.12917 65.4832 6.91833L67.1586 4.30996Z" fill="#FAD861"/>
<path d="M87.1586 4.30996C87.5522 3.6972 88.4478 3.6972 88.8414 4.30996L90.5168 6.91833C90.6522 7.12917 90.8618 7.28148 91.1042 7.34512L94.1026 8.13245C94.807 8.31742 95.0838 9.1692 94.6226 9.73287L92.6596 12.1323C92.5009 12.3262 92.4209 12.5727 92.4352 12.8228L92.613 15.9178C92.6548 16.6449 91.9302 17.1713 91.2516 16.9069L88.363 15.7815C88.1296 15.6905 87.8704 15.6905 87.637 15.7815L84.7484 16.9069C84.0698 17.1713 83.3452 16.6449 83.387 15.9178L83.5648 12.8228C83.5791 12.5727 83.4991 12.3262 83.3404 12.1323L81.3774 9.73287C80.9162 9.1692 81.193 8.31742 81.8974 8.13245L84.8958 7.34512C85.1382 7.28148 85.3478 7.12917 85.4832 6.91833L87.1586 4.30996Z" fill="#FAD861"/>
<path d="M107.033 5.8623C107.612 5.8623 108.125 5.95345 108.571 6.13574C109.018 6.31803 109.367 6.58691 109.617 6.94238C109.872 7.29329 110 7.72624 110 8.24121C110 8.64681 109.911 9.00228 109.733 9.30762C109.56 9.6084 109.326 9.87272 109.029 10.1006C108.733 10.3239 108.405 10.5244 108.045 10.7021C108.473 10.8981 108.858 11.1191 109.2 11.3652C109.547 11.6113 109.82 11.9007 110.021 12.2334C110.221 12.5661 110.321 12.9603 110.321 13.416C110.321 13.9766 110.185 14.4619 109.911 14.8721C109.642 15.2777 109.264 15.5898 108.776 15.8086C108.289 16.0273 107.717 16.1367 107.061 16.1367C106.354 16.1367 105.753 16.0319 105.256 15.8223C104.764 15.6081 104.388 15.3027 104.128 14.9062C103.873 14.5052 103.745 14.0244 103.745 13.4639C103.745 13.0036 103.843 12.6048 104.039 12.2676C104.235 11.9258 104.495 11.6318 104.818 11.3857C105.142 11.1396 105.495 10.9323 105.878 10.7637C105.545 10.5814 105.24 10.374 104.962 10.1416C104.688 9.90918 104.47 9.63802 104.306 9.32812C104.146 9.01367 104.066 8.64909 104.066 8.23438C104.066 7.72852 104.194 7.30013 104.449 6.94922C104.709 6.59375 105.062 6.32487 105.509 6.14258C105.96 5.95573 106.468 5.8623 107.033 5.8623ZM104.859 13.4707C104.859 13.9811 105.039 14.4027 105.399 14.7354C105.759 15.0635 106.304 15.2275 107.033 15.2275C107.726 15.2275 108.261 15.0635 108.64 14.7354C109.018 14.4027 109.207 13.9674 109.207 13.4297C109.207 13.097 109.12 12.8053 108.947 12.5547C108.774 12.2995 108.528 12.0716 108.209 11.8711C107.89 11.6706 107.514 11.4883 107.081 11.3242L106.835 11.2354C106.416 11.4085 106.058 11.6022 105.762 11.8164C105.47 12.026 105.247 12.2653 105.092 12.5342C104.937 12.8031 104.859 13.1152 104.859 13.4707ZM107.02 6.79199C106.482 6.79199 106.042 6.92188 105.7 7.18164C105.358 7.43685 105.188 7.80599 105.188 8.28906C105.188 8.63542 105.27 8.92936 105.434 9.1709C105.602 9.40788 105.83 9.61296 106.117 9.78613C106.404 9.95475 106.726 10.112 107.081 10.2578C107.427 10.112 107.735 9.95247 108.004 9.7793C108.273 9.60156 108.485 9.39193 108.64 9.15039C108.795 8.90885 108.872 8.61947 108.872 8.28223C108.872 7.79915 108.701 7.43001 108.359 7.1748C108.022 6.9196 107.576 6.79199 107.02 6.79199ZM118.791 13.6826H117.294V16H116.187V13.6826H111.354V12.7256L116.111 5.95117H117.294V12.6572H118.791V13.6826ZM116.187 12.6572V9.38965C116.187 9.139 116.189 8.91341 116.193 8.71289C116.198 8.50781 116.205 8.31868 116.214 8.14551C116.223 7.96777 116.23 7.79915 116.234 7.63965C116.243 7.48014 116.25 7.32292 116.255 7.16797H116.2C116.114 7.35026 116.013 7.54395 115.899 7.74902C115.79 7.94954 115.678 8.12956 115.564 8.28906L112.481 12.6572H116.187ZM131.882 16H130.542L125.094 7.60547H125.039C125.053 7.82878 125.069 8.08398 125.087 8.37109C125.105 8.65365 125.119 8.95671 125.128 9.28027C125.142 9.59928 125.148 9.92513 125.148 10.2578V16H124.068V6.00586H125.401L130.829 14.373H130.877C130.868 14.2135 130.856 13.988 130.843 13.6963C130.829 13.4001 130.815 13.0833 130.802 12.7461C130.793 12.4043 130.788 12.0876 130.788 11.7959V6.00586H131.882V16ZM136.53 19.3633C135.546 19.3633 134.787 19.1787 134.254 18.8096C133.721 18.445 133.454 17.9323 133.454 17.2715C133.454 16.8021 133.602 16.401 133.898 16.0684C134.199 15.7357 134.614 15.5146 135.143 15.4053C134.947 15.3141 134.778 15.1774 134.637 14.9951C134.5 14.8128 134.432 14.6032 134.432 14.3662C134.432 14.0928 134.507 13.8535 134.657 13.6484C134.812 13.4388 135.047 13.2383 135.361 13.0469C134.969 12.8874 134.65 12.6185 134.404 12.2402C134.163 11.8574 134.042 11.4131 134.042 10.9072C134.042 10.3695 134.154 9.91146 134.377 9.5332C134.6 9.15039 134.924 8.85872 135.348 8.6582C135.771 8.45768 136.284 8.35742 136.886 8.35742C137.018 8.35742 137.15 8.36426 137.282 8.37793C137.419 8.38704 137.549 8.40299 137.672 8.42578C137.795 8.44401 137.902 8.4668 137.993 8.49414H140.563V9.22559L139.183 9.39648C139.319 9.57422 139.433 9.78841 139.524 10.0391C139.616 10.2897 139.661 10.5677 139.661 10.873C139.661 11.6204 139.408 12.2152 138.902 12.6572C138.396 13.0947 137.701 13.3135 136.817 13.3135C136.608 13.3135 136.394 13.2952 136.175 13.2588C135.951 13.3818 135.781 13.5186 135.662 13.6689C135.548 13.8193 135.491 13.9925 135.491 14.1885C135.491 14.3343 135.535 14.4505 135.621 14.5371C135.712 14.6237 135.842 14.6875 136.011 14.7285C136.179 14.765 136.382 14.7832 136.619 14.7832H137.938C138.754 14.7832 139.379 14.9541 139.812 15.2959C140.249 15.6377 140.468 16.1367 140.468 16.793C140.468 17.6224 140.131 18.2581 139.456 18.7002C138.782 19.1423 137.806 19.3633 136.53 19.3633ZM136.564 18.4746C137.184 18.4746 137.697 18.4108 138.103 18.2832C138.513 18.1602 138.818 17.9801 139.019 17.7432C139.224 17.5107 139.326 17.2327 139.326 16.9092C139.326 16.6084 139.258 16.3805 139.121 16.2256C138.984 16.0752 138.784 15.9749 138.52 15.9248C138.255 15.8701 137.932 15.8428 137.549 15.8428H136.25C135.913 15.8428 135.619 15.8952 135.368 16C135.118 16.1048 134.924 16.2598 134.787 16.4648C134.655 16.6699 134.589 16.9251 134.589 17.2305C134.589 17.6361 134.76 17.9437 135.102 18.1533C135.443 18.3675 135.931 18.4746 136.564 18.4746ZM136.858 12.4863C137.401 12.4863 137.809 12.3496 138.082 12.0762C138.355 11.8027 138.492 11.404 138.492 10.8799C138.492 10.3193 138.353 9.90007 138.075 9.62207C137.797 9.33952 137.387 9.19824 136.845 9.19824C136.325 9.19824 135.924 9.34408 135.642 9.63574C135.364 9.92285 135.225 10.3444 135.225 10.9004C135.225 11.4108 135.366 11.8027 135.648 12.0762C135.931 12.3496 136.334 12.4863 136.858 12.4863ZM150.476 7.3457L150.571 7.49609C150.521 7.82422 150.444 8.13867 150.339 8.43945C150.239 8.74023 150.1 9.01139 149.922 9.25293C149.744 9.49447 149.516 9.69499 149.238 9.85449C148.965 10.014 148.628 10.1165 148.227 10.1621V16H147.297L147.133 14.9473H147.071C146.916 15.207 146.718 15.4258 146.477 15.6035C146.235 15.7812 145.962 15.9134 145.656 16C145.351 16.0911 145.027 16.1367 144.686 16.1367C144.084 16.1367 143.58 16.041 143.175 15.8496C142.769 15.6582 142.464 15.362 142.259 14.9609C142.058 14.5599 141.958 14.0449 141.958 13.416V8.52148H143.106V13.334C143.106 13.9583 143.248 14.4255 143.53 14.7354C143.813 15.0407 144.243 15.1934 144.822 15.1934C145.652 15.1934 146.235 14.9587 146.572 14.4893C146.914 14.0199 147.085 13.3408 147.085 12.4521V8.52148H148.227V9.35547C148.518 9.30078 148.739 9.18457 148.89 9.00684C149.04 8.8291 149.143 8.59896 149.197 8.31641C149.252 8.03385 149.279 7.71029 149.279 7.3457H150.476ZM157.783 12.2402C157.783 13.0605 157.642 13.7624 157.359 14.3457C157.081 14.9245 156.683 15.3688 156.163 15.6787C155.648 15.984 155.033 16.1367 154.317 16.1367C153.652 16.1367 153.062 15.984 152.547 15.6787C152.032 15.3688 151.629 14.9245 151.337 14.3457C151.05 13.7624 150.906 13.0605 150.906 12.2402C150.906 11.0098 151.214 10.0573 151.829 9.38281C152.449 8.70833 153.294 8.37109 154.365 8.37109C154.862 8.37109 155.315 8.4554 155.726 8.62402C156.14 8.79264 156.496 9.0319 156.792 9.3418C157.061 9.25521 157.264 9.12077 157.4 8.93848C157.537 8.75163 157.628 8.52376 157.674 8.25488C157.719 7.986 157.742 7.6875 157.742 7.35938H158.945L159.041 7.50293C158.968 7.93132 158.861 8.31185 158.72 8.64453C158.578 8.97721 158.392 9.25977 158.159 9.49219C157.931 9.72461 157.644 9.9069 157.298 10.0391C157.453 10.3353 157.571 10.668 157.653 11.0371C157.74 11.4062 157.783 11.8073 157.783 12.2402ZM152.082 12.2402C152.082 12.8783 152.16 13.4183 152.314 13.8604C152.474 14.2979 152.72 14.6305 153.053 14.8584C153.39 15.0817 153.821 15.1934 154.345 15.1934C154.873 15.1934 155.304 15.0794 155.637 14.8516C155.969 14.6237 156.213 14.291 156.368 13.8535C156.528 13.4115 156.607 12.8737 156.607 12.2402C156.607 11.6113 156.528 11.0804 156.368 10.6475C156.213 10.2145 155.969 9.88639 155.637 9.66309C155.304 9.43978 154.871 9.32812 154.338 9.32812C153.554 9.32812 152.982 9.5765 152.622 10.0732C152.262 10.5654 152.082 11.2878 152.082 12.2402ZM153.873 5.27441C153.982 5.48405 154.117 5.71875 154.276 5.97852C154.44 6.23372 154.611 6.48438 154.789 6.73047C154.971 6.97201 155.138 7.17936 155.288 7.35254V7.5166H154.516C154.352 7.38444 154.172 7.22721 153.976 7.04492C153.784 6.86263 153.593 6.67122 153.401 6.4707C153.21 6.26562 153.037 6.07194 152.882 5.88965C152.727 5.7028 152.606 5.54329 152.52 5.41113V5.27441H153.873ZM161.017 8.50781V16H159.882V8.50781H161.017ZM160.463 5.70508C160.65 5.70508 160.809 5.7666 160.941 5.88965C161.078 6.00814 161.146 6.19499 161.146 6.4502C161.146 6.70085 161.078 6.8877 160.941 7.01074C160.809 7.13379 160.65 7.19531 160.463 7.19531C160.267 7.19531 160.103 7.13379 159.971 7.01074C159.843 6.8877 159.779 6.70085 159.779 6.4502C159.779 6.19499 159.843 6.00814 159.971 5.88965C160.103 5.7666 160.267 5.70508 160.463 5.70508ZM169.726 16.1367C168.778 16.1367 168.026 15.8154 167.47 15.1729C166.918 14.5257 166.643 13.571 166.643 12.3086C166.643 11.0007 166.925 10.0231 167.49 9.37598C168.055 8.72884 168.805 8.40527 169.739 8.40527C170.136 8.40527 170.482 8.45768 170.778 8.5625C171.075 8.66732 171.33 8.80859 171.544 8.98633C171.763 9.16406 171.945 9.3623 172.091 9.58105H172.173C172.15 9.43978 172.13 9.24609 172.111 9C172.098 8.75391 172.091 8.54883 172.091 8.38477V7.48926H169.062V6.63477H172.091V5.36328H173.226V6.63477H174.285V7.48926H173.226V16H172.296L172.132 14.9336H172.077C171.936 15.1569 171.758 15.3597 171.544 15.542C171.33 15.7243 171.072 15.8701 170.771 15.9795C170.475 16.0843 170.127 16.1367 169.726 16.1367ZM169.91 15.1934C170.712 15.1934 171.277 14.9701 171.605 14.5234C171.934 14.0723 172.098 13.4001 172.098 12.5068V12.2881C172.098 11.3311 171.94 10.6019 171.626 10.1006C171.312 9.59928 170.737 9.34863 169.903 9.34863C169.206 9.34863 168.684 9.61068 168.338 10.1348C167.996 10.6589 167.825 11.3857 167.825 12.3154C167.825 13.236 167.996 13.9469 168.338 14.4482C168.68 14.945 169.204 15.1934 169.91 15.1934ZM178.448 8.38477C179.341 8.38477 180.005 8.58529 180.438 8.98633C180.87 9.38737 181.087 10.0277 181.087 10.9072V16H180.26L180.041 14.8926H179.986C179.777 15.166 179.558 15.3962 179.33 15.583C179.102 15.7653 178.838 15.9043 178.537 16C178.241 16.0911 177.876 16.1367 177.443 16.1367C176.988 16.1367 176.582 16.057 176.227 15.8975C175.876 15.738 175.598 15.4964 175.393 15.1729C175.192 14.8493 175.092 14.4391 175.092 13.9424C175.092 13.195 175.388 12.6208 175.98 12.2197C176.573 11.8187 177.475 11.5999 178.688 11.5635L179.979 11.5088V11.0508C179.979 10.4036 179.84 9.9502 179.562 9.69043C179.285 9.43066 178.893 9.30078 178.387 9.30078C177.995 9.30078 177.621 9.35775 177.266 9.47168C176.91 9.58561 176.573 9.72005 176.254 9.875L175.905 9.01367C176.243 8.84049 176.63 8.69238 177.067 8.56934C177.505 8.44629 177.965 8.38477 178.448 8.38477ZM179.966 12.3086L178.824 12.3564C177.89 12.3929 177.231 12.5456 176.849 12.8145C176.466 13.0833 176.274 13.4639 176.274 13.9561C176.274 14.3844 176.404 14.7012 176.664 14.9062C176.924 15.1113 177.268 15.2139 177.696 15.2139C178.362 15.2139 178.906 15.0293 179.33 14.6602C179.754 14.291 179.966 13.7373 179.966 12.999V12.3086ZM180.321 5.27441V5.41113C180.23 5.54329 180.105 5.7028 179.945 5.88965C179.79 6.07194 179.617 6.26562 179.426 6.4707C179.234 6.67122 179.041 6.86263 178.845 7.04492C178.653 7.22721 178.476 7.38444 178.312 7.5166H177.553V7.35254C177.699 7.17936 177.858 6.97201 178.031 6.73047C178.204 6.48438 178.373 6.23372 178.537 5.97852C178.701 5.71875 178.838 5.48405 178.947 5.27441H180.321ZM186.973 8.37109C187.861 8.37109 188.534 8.58984 188.989 9.02734C189.445 9.46029 189.673 10.1576 189.673 11.1191V16H188.552V11.1943C188.552 10.57 188.408 10.1029 188.121 9.79297C187.839 9.48307 187.403 9.32812 186.815 9.32812C185.986 9.32812 185.403 9.56283 185.065 10.0322C184.728 10.5016 184.56 11.1829 184.56 12.0762V16H183.425V8.50781H184.341L184.512 9.58789H184.573C184.733 9.32357 184.936 9.10254 185.182 8.9248C185.428 8.74251 185.703 8.60579 186.009 8.51465C186.314 8.41895 186.635 8.37109 186.973 8.37109ZM193.146 5.36328V8.54199C193.146 8.72428 193.141 8.90885 193.132 9.0957C193.123 9.27799 193.107 9.44661 193.084 9.60156H193.159C193.314 9.33724 193.51 9.11621 193.747 8.93848C193.989 8.75618 194.262 8.61947 194.567 8.52832C194.873 8.43262 195.196 8.38477 195.538 8.38477C196.14 8.38477 196.641 8.48047 197.042 8.67188C197.448 8.86328 197.751 9.15951 197.951 9.56055C198.156 9.96159 198.259 10.4811 198.259 11.1191V16H197.138V11.1943C197.138 10.57 196.994 10.1029 196.707 9.79297C196.424 9.48307 195.989 9.32812 195.401 9.32812C194.845 9.32812 194.401 9.43522 194.068 9.64941C193.74 9.85905 193.503 10.1689 193.357 10.5791C193.216 10.9893 193.146 11.4906 193.146 12.083V16H192.011V5.36328H193.146ZM206.325 19.3633C205.341 19.3633 204.582 19.1787 204.049 18.8096C203.516 18.445 203.249 17.9323 203.249 17.2715C203.249 16.8021 203.397 16.401 203.693 16.0684C203.994 15.7357 204.409 15.5146 204.938 15.4053C204.742 15.3141 204.573 15.1774 204.432 14.9951C204.295 14.8128 204.227 14.6032 204.227 14.3662C204.227 14.0928 204.302 13.8535 204.452 13.6484C204.607 13.4388 204.842 13.2383 205.156 13.0469C204.764 12.8874 204.445 12.6185 204.199 12.2402C203.958 11.8574 203.837 11.4131 203.837 10.9072C203.837 10.3695 203.949 9.91146 204.172 9.5332C204.395 9.15039 204.719 8.85872 205.143 8.6582C205.566 8.45768 206.079 8.35742 206.681 8.35742C206.813 8.35742 206.945 8.36426 207.077 8.37793C207.214 8.38704 207.344 8.40299 207.467 8.42578C207.59 8.44401 207.697 8.4668 207.788 8.49414H210.358V9.22559L208.978 9.39648C209.114 9.57422 209.228 9.78841 209.319 10.0391C209.41 10.2897 209.456 10.5677 209.456 10.873C209.456 11.6204 209.203 12.2152 208.697 12.6572C208.191 13.0947 207.496 13.3135 206.612 13.3135C206.403 13.3135 206.188 13.2952 205.97 13.2588C205.746 13.3818 205.576 13.5186 205.457 13.6689C205.343 13.8193 205.286 13.9925 205.286 14.1885C205.286 14.3343 205.329 14.4505 205.416 14.5371C205.507 14.6237 205.637 14.6875 205.806 14.7285C205.974 14.765 206.177 14.7832 206.414 14.7832H207.733C208.549 14.7832 209.174 14.9541 209.606 15.2959C210.044 15.6377 210.263 16.1367 210.263 16.793C210.263 17.6224 209.925 18.2581 209.251 18.7002C208.576 19.1423 207.601 19.3633 206.325 19.3633ZM206.359 18.4746C206.979 18.4746 207.492 18.4108 207.897 18.2832C208.308 18.1602 208.613 17.9801 208.813 17.7432C209.019 17.5107 209.121 17.2327 209.121 16.9092C209.121 16.6084 209.053 16.3805 208.916 16.2256C208.779 16.0752 208.579 15.9749 208.314 15.9248C208.05 15.8701 207.727 15.8428 207.344 15.8428H206.045C205.708 15.8428 205.414 15.8952 205.163 16C204.912 16.1048 204.719 16.2598 204.582 16.4648C204.45 16.6699 204.384 16.9251 204.384 17.2305C204.384 17.6361 204.555 17.9437 204.896 18.1533C205.238 18.3675 205.726 18.4746 206.359 18.4746ZM206.653 12.4863C207.196 12.4863 207.604 12.3496 207.877 12.0762C208.15 11.8027 208.287 11.404 208.287 10.8799C208.287 10.3193 208.148 9.90007 207.87 9.62207C207.592 9.33952 207.182 9.19824 206.64 9.19824C206.12 9.19824 205.719 9.34408 205.437 9.63574C205.159 9.92285 205.02 10.3444 205.02 10.9004C205.02 11.4108 205.161 11.8027 205.443 12.0762C205.726 12.3496 206.129 12.4863 206.653 12.4863ZM212.97 8.50781V16H211.835V8.50781H212.97ZM212.416 5.70508C212.603 5.70508 212.762 5.7666 212.895 5.88965C213.031 6.00814 213.1 6.19499 213.1 6.4502C213.1 6.70085 213.031 6.8877 212.895 7.01074C212.762 7.13379 212.603 7.19531 212.416 7.19531C212.22 7.19531 212.056 7.13379 211.924 7.01074C211.796 6.8877 211.732 6.70085 211.732 6.4502C211.732 6.19499 211.796 6.00814 211.924 5.88965C212.056 5.7666 212.22 5.70508 212.416 5.70508ZM218.179 8.38477C219.072 8.38477 219.735 8.58529 220.168 8.98633C220.601 9.38737 220.817 10.0277 220.817 10.9072V16H219.99L219.771 14.8926H219.717C219.507 15.166 219.288 15.3962 219.061 15.583C218.833 15.7653 218.568 15.9043 218.268 16C217.971 16.0911 217.607 16.1367 217.174 16.1367C216.718 16.1367 216.312 16.057 215.957 15.8975C215.606 15.738 215.328 15.4964 215.123 15.1729C214.923 14.8493 214.822 14.4391 214.822 13.9424C214.822 13.195 215.118 12.6208 215.711 12.2197C216.303 11.8187 217.206 11.5999 218.418 11.5635L219.71 11.5088V11.0508C219.71 10.4036 219.571 9.9502 219.293 9.69043C219.015 9.43066 218.623 9.30078 218.117 9.30078C217.725 9.30078 217.352 9.35775 216.996 9.47168C216.641 9.58561 216.303 9.72005 215.984 9.875L215.636 9.01367C215.973 8.84049 216.36 8.69238 216.798 8.56934C217.235 8.44629 217.696 8.38477 218.179 8.38477ZM219.696 12.3086L218.555 12.3564C217.62 12.3929 216.962 12.5456 216.579 12.8145C216.196 13.0833 216.005 13.4639 216.005 13.9561C216.005 14.3844 216.135 14.7012 216.395 14.9062C216.654 15.1113 216.998 15.2139 217.427 15.2139C218.092 15.2139 218.637 15.0293 219.061 14.6602C219.484 14.291 219.696 13.7373 219.696 12.999V12.3086ZM220.052 5.27441V5.41113C219.961 5.54329 219.835 5.7028 219.676 5.88965C219.521 6.07194 219.348 6.26562 219.156 6.4707C218.965 6.67122 218.771 6.86263 218.575 7.04492C218.384 7.22721 218.206 7.38444 218.042 7.5166H217.283V7.35254C217.429 7.17936 217.589 6.97201 217.762 6.73047C217.935 6.48438 218.104 6.23372 218.268 5.97852C218.432 5.71875 218.568 5.48405 218.678 5.27441H220.052Z" fill="#A5B1BC"/>
</svg>
